<mxfile host="app.diagrams.net" agent="Mozilla/5.0 (X11; Linux x86_64; rv:128.0) Gecko/20100101 Firefox/128.0" version="26.0.11">
  <diagram name="Page-1" id="sJQhUPBWpJW9KDEtCvfj">
    <mxGraphModel dx="1607" dy="949" grid="1" gridSize="10" guides="1" tooltips="1" connect="1" arrows="1" fold="1" page="1" pageScale="1" pageWidth="850" pageHeight="1100" math="0" shadow="0">
      <root>
        <mxCell id="0" />
        <mxCell id="1" parent="0" />
        <mxCell id="W6q4LjrihfKNPNCk5p_2-56" value="" style="group" vertex="1" connectable="0" parent="1">
          <mxGeometry width="380" height="430" as="geometry" />
        </mxCell>
        <mxCell id="W6q4LjrihfKNPNCk5p_2-55" value="" style="rounded=0;whiteSpace=wrap;html=1;" vertex="1" parent="W6q4LjrihfKNPNCk5p_2-56">
          <mxGeometry width="380" height="430" as="geometry" />
        </mxCell>
        <mxCell id="W6q4LjrihfKNPNCk5p_2-36" value="Grupo_trabajo" style="rounded=0;whiteSpace=wrap;html=1;fillColor=#d5e8d4;strokeColor=#82b366;" vertex="1" parent="W6q4LjrihfKNPNCk5p_2-56">
          <mxGeometry x="40" y="270" width="120" height="60" as="geometry" />
        </mxCell>
        <mxCell id="W6q4LjrihfKNPNCk5p_2-38" style="edgeStyle=orthogonalEdgeStyle;rounded=0;orthogonalLoop=1;jettySize=auto;html=1;exitX=0.5;exitY=0;exitDx=0;exitDy=0;entryX=0.5;entryY=0;entryDx=0;entryDy=0;endArrow=none;startFill=0;" edge="1" parent="W6q4LjrihfKNPNCk5p_2-56" source="W6q4LjrihfKNPNCk5p_2-37" target="W6q4LjrihfKNPNCk5p_2-36">
          <mxGeometry relative="1" as="geometry" />
        </mxCell>
        <mxCell id="W6q4LjrihfKNPNCk5p_2-39" style="edgeStyle=orthogonalEdgeStyle;rounded=0;orthogonalLoop=1;jettySize=auto;html=1;exitX=0.5;exitY=1;exitDx=0;exitDy=0;entryX=0.5;entryY=1;entryDx=0;entryDy=0;endArrow=none;startFill=0;" edge="1" parent="W6q4LjrihfKNPNCk5p_2-56" source="W6q4LjrihfKNPNCk5p_2-37" target="W6q4LjrihfKNPNCk5p_2-36">
          <mxGeometry relative="1" as="geometry" />
        </mxCell>
        <mxCell id="W6q4LjrihfKNPNCk5p_2-37" value="es jefe" style="rhombus;whiteSpace=wrap;html=1;fillColor=#fff2cc;strokeColor=#d6b656;" vertex="1" parent="W6q4LjrihfKNPNCk5p_2-56">
          <mxGeometry x="260" y="260" width="80" height="80" as="geometry" />
        </mxCell>
        <mxCell id="W6q4LjrihfKNPNCk5p_2-40" value="(1:1)" style="text;html=1;align=center;verticalAlign=middle;resizable=0;points=[];autosize=1;strokeColor=none;fillColor=none;" vertex="1" parent="W6q4LjrihfKNPNCk5p_2-56">
          <mxGeometry x="190" y="210" width="50" height="30" as="geometry" />
        </mxCell>
        <mxCell id="W6q4LjrihfKNPNCk5p_2-41" value="(1:N)" style="text;html=1;align=center;verticalAlign=middle;resizable=0;points=[];autosize=1;strokeColor=none;fillColor=none;" vertex="1" parent="W6q4LjrihfKNPNCk5p_2-56">
          <mxGeometry x="190" y="360" width="50" height="30" as="geometry" />
        </mxCell>
        <mxCell id="W6q4LjrihfKNPNCk5p_2-42" value="Grupo_trabajo" style="shape=table;startSize=30;container=1;collapsible=1;childLayout=tableLayout;fixedRows=1;rowLines=0;fontStyle=1;align=center;resizeLast=1;html=1;" vertex="1" parent="W6q4LjrihfKNPNCk5p_2-56">
          <mxGeometry x="110" y="40" width="180" height="120" as="geometry" />
        </mxCell>
        <mxCell id="W6q4LjrihfKNPNCk5p_2-43" value="" style="shape=tableRow;horizontal=0;startSize=0;swimlaneHead=0;swimlaneBody=0;fillColor=none;collapsible=0;dropTarget=0;points=[[0,0.5],[1,0.5]];portConstraint=eastwest;top=0;left=0;right=0;bottom=1;" vertex="1" parent="W6q4LjrihfKNPNCk5p_2-42">
          <mxGeometry y="30" width="180" height="30" as="geometry" />
        </mxCell>
        <mxCell id="W6q4LjrihfKNPNCk5p_2-44" value="PK" style="shape=partialRectangle;connectable=0;fillColor=none;top=0;left=0;bottom=0;right=0;fontStyle=1;overflow=hidden;whiteSpace=wrap;html=1;" vertex="1" parent="W6q4LjrihfKNPNCk5p_2-43">
          <mxGeometry width="30" height="30" as="geometry">
            <mxRectangle width="30" height="30" as="alternateBounds" />
          </mxGeometry>
        </mxCell>
        <mxCell id="W6q4LjrihfKNPNCk5p_2-45" value="id_grupo" style="shape=partialRectangle;connectable=0;fillColor=none;top=0;left=0;bottom=0;right=0;align=left;spacingLeft=6;fontStyle=5;overflow=hidden;whiteSpace=wrap;html=1;" vertex="1" parent="W6q4LjrihfKNPNCk5p_2-43">
          <mxGeometry x="30" width="150" height="30" as="geometry">
            <mxRectangle width="150" height="30" as="alternateBounds" />
          </mxGeometry>
        </mxCell>
        <mxCell id="W6q4LjrihfKNPNCk5p_2-46" value="" style="shape=tableRow;horizontal=0;startSize=0;swimlaneHead=0;swimlaneBody=0;fillColor=none;collapsible=0;dropTarget=0;points=[[0,0.5],[1,0.5]];portConstraint=eastwest;top=0;left=0;right=0;bottom=0;" vertex="1" parent="W6q4LjrihfKNPNCk5p_2-42">
          <mxGeometry y="60" width="180" height="30" as="geometry" />
        </mxCell>
        <mxCell id="W6q4LjrihfKNPNCk5p_2-47" value="" style="shape=partialRectangle;connectable=0;fillColor=none;top=0;left=0;bottom=0;right=0;editable=1;overflow=hidden;whiteSpace=wrap;html=1;" vertex="1" parent="W6q4LjrihfKNPNCk5p_2-46">
          <mxGeometry width="30" height="30" as="geometry">
            <mxRectangle width="30" height="30" as="alternateBounds" />
          </mxGeometry>
        </mxCell>
        <mxCell id="W6q4LjrihfKNPNCk5p_2-48" value="nombre" style="shape=partialRectangle;connectable=0;fillColor=none;top=0;left=0;bottom=0;right=0;align=left;spacingLeft=6;overflow=hidden;whiteSpace=wrap;html=1;" vertex="1" parent="W6q4LjrihfKNPNCk5p_2-46">
          <mxGeometry x="30" width="150" height="30" as="geometry">
            <mxRectangle width="150" height="30" as="alternateBounds" />
          </mxGeometry>
        </mxCell>
        <mxCell id="W6q4LjrihfKNPNCk5p_2-49" value="" style="shape=tableRow;horizontal=0;startSize=0;swimlaneHead=0;swimlaneBody=0;fillColor=none;collapsible=0;dropTarget=0;points=[[0,0.5],[1,0.5]];portConstraint=eastwest;top=0;left=0;right=0;bottom=0;" vertex="1" parent="W6q4LjrihfKNPNCk5p_2-42">
          <mxGeometry y="90" width="180" height="30" as="geometry" />
        </mxCell>
        <mxCell id="W6q4LjrihfKNPNCk5p_2-50" value="" style="shape=partialRectangle;connectable=0;fillColor=none;top=0;left=0;bottom=0;right=0;editable=1;overflow=hidden;whiteSpace=wrap;html=1;" vertex="1" parent="W6q4LjrihfKNPNCk5p_2-49">
          <mxGeometry width="30" height="30" as="geometry">
            <mxRectangle width="30" height="30" as="alternateBounds" />
          </mxGeometry>
        </mxCell>
        <mxCell id="W6q4LjrihfKNPNCk5p_2-51" value="es jefe" style="shape=partialRectangle;connectable=0;fillColor=none;top=0;left=0;bottom=0;right=0;align=left;spacingLeft=6;overflow=hidden;whiteSpace=wrap;html=1;" vertex="1" parent="W6q4LjrihfKNPNCk5p_2-49">
          <mxGeometry x="30" width="150" height="30" as="geometry">
            <mxRectangle width="150" height="30" as="alternateBounds" />
          </mxGeometry>
        </mxCell>
      </root>
    </mxGraphModel>
  </diagram>
</mxfile>
